<svg width="121" height="121" viewBox="0 0 121 121" fill="none" xmlns="http://www.w3.org/2000/svg">
<circle cx="60.5" cy="60.5" r="60.5" fill="black"/>
<path d="M88.8152 87.4942C84.8526 87.4942 81.8312 86.3798 79.7509 84.1509C77.6705 81.8724 76.6304 78.6281 76.6304 74.4179V47.0764C76.6304 42.8662 77.6705 39.6466 79.7509 37.4177C81.8312 35.1392 84.8526 34 88.8152 34C92.7777 34 95.7991 35.1392 97.8795 37.4177C99.9598 39.6466 101 42.8662 101 47.0764V51.5342H93.273V46.5563C93.273 43.1386 91.8614 41.4298 89.0381 41.4298C86.2148 41.4298 84.8031 43.1386 84.8031 46.5563V75.0123C84.8031 78.3804 86.2148 80.0645 89.0381 80.0645C91.8614 80.0645 93.273 78.3804 93.273 75.0123V64.8335H89.1867V57.4037H101V74.4179C101 78.6281 99.9598 81.8724 97.8795 84.1509C95.7991 86.3798 92.7777 87.4942 88.8152 87.4942Z" fill="white"/>
<path d="M51.9751 34.743H60.1478V79.3216H73.5957V86.7513H51.9751V34.743Z" fill="white"/>
<path d="M28.4699 34.743H39.5403L48.0102 86.7513H39.8374L38.3515 76.424V76.5726H29.0643L27.5784 86.7513H20L28.4699 34.743ZM37.3856 69.5143L33.745 43.8073H33.5965L30.0302 69.5143H37.3856Z" fill="white"/>
</svg>
